HIERARCHY
ROOT Hips
{
	OFFSET -0.001795 -0.223333 0.028219
	CHANNELS 6 Xposition Yposition Zposition Zrotation Yrotation Xrotation 
	JOINT LeftUpLeg
	{
		OFFSET 0.069520 -0.091406 -0.006815
		CHANNELS 3 Zrotation Yrotation Xrotation
		JOINT LeftLeg
		{
			OFFSET 0.034277 -0.375199 -0.004496
			CHANNELS 3 Zrotation Yrotation Xrotation
			JOINT LeftFoot
			{
				OFFSET -0.013596 -0.397961 -0.043693
				CHANNELS 3 Zrotation Yrotation Xrotation
				JOINT LeftToe
				{
					OFFSET 0.026358 -0.055791 0.119288
					CHANNELS 3 Zrotation Yrotation Xrotation
					End Site
					{
						OFFSET 0.000000 0.000000 0.000000
					}
				}
			}
		}
	}
	JOINT RightUpLeg
	{
		OFFSET -0.067670 -0.090522 -0.004320
		CHANNELS 3 Zrotation Yrotation Xrotation
		JOINT RightLeg
		{
			OFFSET -0.038290 -0.382569 -0.008850
			CHANNELS 3 Zrotation Yrotation Xrotation
			JOINT RightFoot
			{
				OFFSET 0.015774 -0.398415 -0.042312
				CHANNELS 3 Zrotation Yrotation Xrotation
				JOINT RightToe
				{
					OFFSET -0.025372 -0.048144 0.123348
					CHANNELS 3 Zrotation Yrotation Xrotation
					End Site
					{
						OFFSET 0.000000 0.000000 0.000000
					}
				}
			}
		}
	}
	JOINT Spine
	{
		OFFSET -0.002533 0.108963 -0.026696
		CHANNELS 3 Zrotation Yrotation Xrotation
		JOINT Spine1
		{
			OFFSET 0.005487 0.135180 0.001092
			CHANNELS 3 Zrotation Yrotation Xrotation
			JOINT Spine2
			{
				OFFSET 0.001457 0.052922 0.025425
				CHANNELS 3 Zrotation Yrotation Xrotation
				JOINT Neck
				{
					OFFSET -0.002778 0.213870 -0.042857
					CHANNELS 3 Zrotation Yrotation Xrotation
					JOINT Head
					{
						OFFSET 0.005152 0.064970 0.051349
						CHANNELS 3 Zrotation Yrotation Xrotation
						End Site
						{
							OFFSET 0.000000 0.000000 0.000000
						}
					}
				}
				JOINT LeftShoulder
				{
					OFFSET 0.078845 0.121749 -0.034090
					CHANNELS 3 Zrotation Yrotation Xrotation
					JOINT LeftArm
					{
						OFFSET 0.090977 0.030469 -0.008868
						CHANNELS 3 Zrotation Yrotation Xrotation
						JOINT LeftForeArm
						{
							OFFSET 0.259612 -0.012772 -0.027456
							CHANNELS 3 Zrotation Yrotation Xrotation
							JOINT LeftHand
							{
								OFFSET 0.249234 0.008986 -0.001171
								CHANNELS 3 Zrotation Yrotation Xrotation
								End Site
								{
									OFFSET 0.000000 0.000000 0.000000
								}
							}
						}
					}
				}
				JOINT RightShoulder
				{
					OFFSET -0.081759 0.118833 -0.038615
					CHANNELS 3 Zrotation Yrotation Xrotation
					JOINT RightArm
					{
						OFFSET -0.096012 0.032551 -0.009143
						CHANNELS 3 Zrotation Yrotation Xrotation
						JOINT RightForeArm
						{
							OFFSET -0.253742 -0.013329 -0.021401
							CHANNELS 3 Zrotation Yrotation Xrotation
							JOINT RightHand
							{
								OFFSET -0.255298 0.007772 -0.005559
								CHANNELS 3 Zrotation Yrotation Xrotation
								End Site
								{
									OFFSET 0.000000 0.000000 0.000000
								}
							}
						}
					}
				}
			}
		}
	}
}
MOTION
Frames: 16
Frame Time: 0.050000
-0.457605 0.936242 -0.439543 -3.512249 41.471344 -5.585084 13.053547 -1.923756 2.621394 2.885437 -1.722808 13.586116 -37.111432 -46.840198 23.266741 0.000000 0.000000 0.000000 -4.514401 -0.438502 -13.993422 4.892841 -1.358019 4.623263 11.455635 14.868806 23.772158 0.000000 0.000000 0.000000 -1.203794 -3.084810 24.623559 7.296742 -0.411784 -28.292780 0.068778 4.296923 30.025198 6.710216 3.522816 -40.839765 0.000000 0.000000 0.000000 -24.349219 -4.624281 -9.256734 -41.104905 -9.837451 -0.808194 -26.271357 -27.233721 5.380975 0.000000 0.000000 0.000000 19.000858 0.121064 5.732017 40.620092 25.806006 1.162337 17.928126 36.625341 8.985990 0.000000 0.000000 0.000000 
-0.446449 0.934518 -0.466273 -3.651442 38.600234 -5.646179 12.604850 -1.750042 3.191973 0.429675 -1.191155 13.045169 -33.424686 -46.444697 18.872313 0.000000 0.000000 0.000000 -5.244543 -0.551612 -15.215100 4.619582 -1.197929 4.513187 13.391069 16.051381 26.163305 0.000000 0.000000 0.000000 -1.481621 -2.749781 24.027525 7.224241 -0.432302 -28.028081 -0.836656 3.658437 28.916568 8.524336 2.349312 -40.501929 0.000000 0.000000 0.000000 -24.206487 -4.398899 -8.357081 -40.084705 -10.711896 -0.688487 -25.024826 -27.114790 5.287026 0.000000 0.000000 0.000000 20.010730 0.129859 5.497271 41.245422 25.351022 0.990862 17.659720 34.507364 8.164916 0.000000 0.000000 0.000000 
-0.432793 0.931584 -0.493882 -3.521901 35.947698 -5.678884 11.592629 -1.493077 3.830617 -1.688987 -0.750323 12.332054 -29.971642 -45.908746 14.727291 0.000000 0.000000 0.000000 -6.370455 -0.731429 -15.790081 4.539535 -1.114034 4.564514 14.293160 17.108997 25.788367 0.000000 0.000000 0.000000 -2.470579 -2.313448 23.418814 7.407506 -0.527429 -28.646164 -0.509321 3.183257 29.163545 8.176129 2.159338 -39.555914 0.000000 0.000000 0.000000 -25.214098 -4.463363 -7.951553 -39.312771 -11.619166 -0.502148 -23.984612 -26.724619 5.192171 0.000000 0.000000 0.000000 20.502906 0.069810 5.172149 42.113800 24.113347 0.531559 16.449696 32.794118 7.239979 0.000000 0.000000 0.000000 
-0.416545 0.928516 -0.522145 -3.294126 33.657512 -5.766922 10.319161 -1.227554 4.546106 -3.742985 -0.345744 11.268303 -27.234509 -45.026009 11.599905 0.000000 0.000000 0.000000 -7.220765 -0.918454 -17.075100 3.592428 -0.919852 6.120247 14.807835 17.930143 24.957059 0.000000 0.000000 0.000000 -2.921325 -2.140982 23.523617 7.289095 -0.531248 -29.156955 -0.858634 2.681071 28.652927 7.847446 1.990672 -39.123057 0.000000 0.000000 0.000000 -25.697468 -3.788613 -7.748942 -39.381093 -11.823616 -0.591238 -23.901233 -26.726590 5.318885 0.000000 0.000000 0.000000 21.001094 0.150665 4.882216 42.548858 22.563065 -0.010551 15.391621 30.984746 6.369519 0.000000 0.000000 0.000000 
-0.399495 0.926431 -0.549769 -2.974551 31.256602 -6.080511 8.975312 -0.970711 5.436563 -5.922150 0.018959 10.140949 -25.270518 -43.314523 9.896570 0.000000 0.000000 0.000000 -8.161919 -1.071262 -17.631613 3.375067 -0.859245 6.953301 14.406300 17.592845 24.188315 0.000000 0.000000 0.000000 -3.709265 -1.844223 23.268767 7.851759 -0.683564 -29.586891 -0.841735 2.129436 29.003062 7.683628 1.739671 -38.749863 0.000000 0.000000 0.000000 -27.188101 -3.619717 -7.555960 -38.956323 -11.650323 -0.762785 -23.431474 -26.173396 5.307877 0.000000 0.000000 0.000000 20.920634 0.630434 4.698601 43.090049 21.176982 -0.463214 14.490734 30.408827 5.918236 0.000000 0.000000 0.000000 
-0.383714 0.926284 -0.574808 -2.906912 28.969859 -6.395238 7.740306 -0.749500 6.343525 -7.534412 0.282198 8.446018 -23.971828 -41.155129 9.347934 0.000000 0.000000 0.000000 -8.412509 -1.019969 -17.906555 2.737011 -0.693519 7.725797 10.943131 13.457909 22.420661 0.000000 0.000000 0.000000 -4.471416 -1.585377 23.102484 8.293100 -0.805431 -29.599045 -1.239881 2.029749 28.857283 7.460092 1.522634 -37.521480 0.000000 0.000000 0.000000 -27.614720 -3.429588 -7.167215 -38.918547 -10.983898 -1.116983 -23.594757 -26.417158 5.516613 0.000000 0.000000 0.000000 21.364372 0.637483 4.406299 44.561323 19.780122 -0.825736 14.198171 29.896465 5.691184 0.000000 0.000000 0.000000 
-0.370211 0.927710 -0.596441 -3.115981 26.778126 -6.425746 6.900307 -0.579308 6.840083 -8.837377 0.454039 6.524368 -23.099290 -38.727749 9.622397 0.000000 0.000000 0.000000 -8.395547 -0.833628 -17.248756 2.979836 -0.689123 7.331874 6.473487 7.610362 19.909750 0.000000 0.000000 0.000000 -4.739760 -1.395516 22.737685 8.280115 -0.822937 -29.725117 -1.131690 1.459982 28.536135 7.276357 1.272727 -36.848780 0.000000 0.000000 0.000000 -27.476613 -2.824297 -6.729502 -39.937179 -10.428106 -1.570069 -22.640152 -25.615410 5.267454 0.000000 0.000000 0.000000 20.524903 0.607740 3.767819 46.937420 17.617404 -1.266485 15.366092 29.116539 5.829305 0.000000 0.000000 0.000000 
-0.359097 0.930350 -0.614823 -3.467245 25.052919 -6.414133 6.407818 -0.468362 7.010280 -9.863317 0.541209 4.863708 -22.750802 -36.450619 10.640720 0.000000 0.000000 0.000000 -7.842543 -0.568800 -16.688144 3.491391 -0.795998 7.700103 -0.125458 -2.967713 19.557094 0.000000 0.000000 0.000000 -5.426420 -1.185384 22.538781 8.850809 -0.968771 -29.662899 -1.144083 1.314955 27.760826 7.472607 0.917548 -36.034860 0.000000 0.000000 0.000000 -27.396919 -2.018347 -6.690656 -40.588615 -9.265359 -2.104359 -22.669107 -25.283360 5.285294 0.000000 0.000000 0.000000 20.932474 0.408559 3.382447 48.503984 15.479312 -1.939810 16.185857 28.395200 5.858225 0.000000 0.000000 0.000000 
-0.349671 0.932957 -0.630336 -3.729196 22.820161 -5.951919 5.618534 -0.309006 7.113711 -10.200629 0.554564 2.746050 -21.868579 -34.026373 11.061415 0.000000 0.000000 0.000000 -6.625995 -0.164580 -16.261513 6.779053 -1.624499 8.600205 -6.322175 -13.619621 17.606493 0.000000 0.000000 0.000000 -5.347606 -1.043429 22.060156 8.485423 -0.880614 -30.125121 -1.085026 0.464233 27.634233 7.152701 0.726480 -35.826232 0.000000 0.000000 0.000000 -27.267438 -1.213578 -6.296539 -41.215361 -8.688222 -2.627406 -22.603826 -25.159934 5.396535 0.000000 0.000000 0.000000 21.005532 0.289536 2.807346 49.100611 13.421290 -2.682721 16.968002 27.672724 5.834578 0.000000 0.000000 0.000000 
-0.340760 0.935527 -0.643235 -4.276084 21.520984 -6.020393 5.095541 -0.216205 7.498867 -10.057580 0.512068 0.971998 -21.535342 -32.401089 11.769050 0.000000 0.000000 0.000000 -5.381008 0.157461 -15.719463 12.673805 -3.321551 9.580549 -10.539066 -21.311749 16.730412 0.000000 0.000000 0.000000 -5.326260 -1.047492 22.666380 8.764374 -0.919172 -30.891574 -0.987265 0.179819 27.233677 7.167341 0.471630 -35.097198 0.000000 0.000000 0.000000 -27.316198 -1.049645 -5.962859 -41.959300 -7.489497 -3.200508 -22.745739 -25.343127 5.554458 0.000000 0.000000 0.000000 21.327548 0.068345 2.412704 49.251479 11.276427 -3.507482 17.861230 27.271873 5.938047 0.000000 0.000000 0.000000 
-0.331677 0.936957 -0.653054 -4.436016 20.431411 -5.977794 4.262961 -0.088089 8.037700 -9.874066 0.456705 -0.720395 -21.278966 -31.050029 12.427523 0.000000 0.000000 0.000000 -4.229661 0.413925 -14.675652 17.986938 -4.754687 8.876524 -10.213474 -20.519824 20.066897 0.000000 0.000000 0.000000 -4.954086 -1.052763 22.625844 8.492178 -0.850457 -31.134613 -1.393218 -0.930722 26.664575 6.298072 0.527850 -34.108523 0.000000 0.000000 0.000000 -27.322525 -0.572597 -5.572895 -42.083345 -7.079803 -3.532589 -22.969239 -24.588148 5.548452 0.000000 0.000000 0.000000 21.087557 0.181264 1.989347 49.563405 9.502779 -4.086292 18.383509 26.732557 5.866349 0.000000 0.000000 0.000000 
-0.322406 0.937442 -0.660001 -4.575704 19.525073 -6.173840 3.517965 0.027587 8.699436 -9.733676 0.419864 -1.879818 -21.015165 -30.042385 12.828358 0.000000 0.000000 0.000000 -2.817816 0.654864 -13.539159 20.781250 -5.280570 7.468656 -10.485474 -20.799888 22.946092 0.000000 0.000000 0.000000 -4.861455 -1.049337 22.868181 8.827643 -0.886840 -32.044015 -1.633223 -1.193603 26.736411 5.887766 0.465140 -32.763574 0.000000 0.000000 0.000000 -27.992442 -0.909338 -5.196407 -42.370590 -6.141074 -3.949243 -22.975344 -23.594234 5.384787 0.000000 0.000000 0.000000 21.187934 -0.109183 1.617275 49.460748 7.999241 -4.671912 18.825080 26.419723 5.871122 0.000000 0.000000 0.000000 
-0.313299 0.937406 -0.665049 -4.592986 18.993421 -6.255779 2.803030 0.134242 9.353132 -9.717072 0.370979 -3.033379 -20.987621 -29.296553 13.403902 0.000000 0.000000 0.000000 -1.832131 0.771178 -12.296853 22.647039 -5.344463 5.263750 -9.963271 -19.898385 25.760831 0.000000 0.000000 0.000000 -4.424906 -1.096161 22.836544 8.505886 -0.808867 -32.365978 -1.928357 -2.531569 26.589525 5.349796 0.416478 -32.222790 0.000000 0.000000 0.000000 -27.784597 -0.531387 -4.739338 -42.907312 -6.243021 -4.182169 -23.322945 -22.609315 5.322152 0.000000 0.000000 0.000000 20.841269 -0.308847 1.049111 49.277439 7.101424 -4.908119 19.659848 26.086417 5.918046 0.000000 0.000000 0.000000 
-0.304708 0.937007 -0.669206 -4.790293 19.326294 -6.305512 2.191642 0.204368 9.757577 -9.354452 0.305776 -3.936330 -21.365329 -29.222990 14.037658 0.000000 0.000000 0.000000 -0.799595 0.895987 -12.005554 20.282447 -4.631396 4.748323 -10.555181 -20.669492 25.130508 0.000000 0.000000 0.000000 -4.011325 -1.239508 23.384431 8.565509 -0.812726 -32.577771 -1.958109 -3.076612 25.994939 4.893177 0.558747 -31.786956 0.000000 0.000000 0.000000 -28.260283 -0.876207 -4.505361 -43.355849 -6.031546 -4.263041 -23.850744 -22.389567 5.396062 0.000000 0.000000 0.000000 21.312093 -0.359011 0.918365 48.511751 6.196025 -5.168570 19.938979 26.583585 6.085460 0.000000 0.000000 0.000000 
-0.296513 0.936302 -0.673007 -4.708581 19.380112 -6.298354 1.282166 0.324179 10.239117 -8.953823 0.250210 -4.852247 -21.565642 -28.989839 14.533696 0.000000 0.000000 0.000000 0.144834 1.037537 -12.258892 17.646451 -4.015974 5.283969 -11.029987 -21.356464 24.345553 0.000000 0.000000 0.000000 -3.574793 -1.353567 23.726911 8.272387 -0.757338 -32.343116 -2.092627 -3.335374 25.685472 4.023099 0.936520 -31.312542 0.000000 0.000000 0.000000 -28.624730 -1.363198 -4.181706 -43.275768 -6.922214 -3.941901 -24.622425 -22.924456 5.701071 0.000000 0.000000 0.000000 21.811347 -0.094784 1.011510 47.835697 6.029142 -5.183296 20.199728 27.521214 6.374323 0.000000 0.000000 0.000000 
-0.288215 0.935277 -0.676015 -5.214953 19.983265 -6.574242 0.643076 0.393749 10.762251 -7.882808 0.196070 -5.613813 -21.890953 -29.365326 14.669418 0.000000 0.000000 0.000000 1.317474 1.191971 -12.338719 15.412269 -3.523741 5.656085 -11.725654 -22.270655 24.017198 0.000000 0.000000 0.000000 -2.678595 -1.657491 24.558862 8.052189 -0.720080 -32.175696 -1.812637 -3.982758 25.463579 3.391327 1.205797 -31.161165 0.000000 0.000000 0.000000 -28.900839 -2.452386 -3.423630 -43.758840 -7.914213 -3.646610 -25.288933 -23.121603 5.915332 0.000000 0.000000 0.000000 21.604102 0.619132 1.330964 47.658098 6.397535 -4.994498 20.022480 27.890643 6.398414 0.000000 0.000000 0.000000 
